<svg width="30" height="30" viewBox="0 0 30 30" fill="none" xmlns="http://www.w3.org/2000/svg">
<path d="M15.8913 12.15L14.55 14.0775L12.5425 12.8587C12.1632 12.6296 11.7298 12.5055 11.2867 12.499C10.8436 12.4925 10.4068 12.6039 10.0209 12.8217C9.63499 13.0396 9.31396 13.3561 9.09065 13.7389C8.86733 14.1216 8.74977 14.5569 8.75 15V17.5H6.25C5.91848 17.5 5.60054 17.6317 5.36612 17.8661C5.1317 18.1005 5 18.4185 5 18.75C5 19.0815 5.1317 19.3995 5.36612 19.6339C5.60054 19.8683 5.91848 20 6.25 20H20C20.8601 19.9999 21.7056 19.778 22.4549 19.3556C23.2041 18.9332 23.8317 18.3247 24.2771 17.5889C24.7224 16.853 24.9704 16.0148 24.9971 15.1551C25.0237 14.2954 24.8282 13.4434 24.4294 12.6814C24.0305 11.9193 23.4418 11.2731 22.7202 10.8051C21.9986 10.337 21.1685 10.0631 20.31 10.0097C19.4516 9.95623 18.5939 10.1252 17.8198 10.5001C17.0458 10.875 16.3815 11.4433 15.8913 12.15ZM20 7.5C21.9891 7.5 23.8968 8.29018 25.3033 9.6967C26.7098 11.1032 27.5 13.0109 27.5 15C27.5 16.9891 26.7098 18.8968 25.3033 20.3033C23.8968 21.7098 21.9891 22.5 20 22.5H6.25C5.25544 22.5 4.30161 22.1049 3.59835 21.4017C2.89509 20.6984 2.5 19.7446 2.5 18.75C2.5 17.7554 2.89509 16.8016 3.59835 16.0983C4.30161 15.3951 5.25544 15 6.25 15C6.24981 14.1135 6.48532 13.2429 6.93241 12.4773C7.37949 11.7118 8.02207 11.0789 8.7943 10.6435C9.56653 10.2081 10.4406 9.98584 11.327 9.9995C12.2135 10.0132 13.0803 10.2623 13.8387 10.7212C14.5295 9.72689 15.4506 8.91453 16.5236 8.35357C17.5965 7.79262 18.7893 7.49976 20 7.5Z" fill="black"/>
</svg>
