<svg width="30" height="30" viewBox="0 0 30 30" fill="none" xmlns="http://www.w3.org/2000/svg">
<path d="M2.5 11.25C3.49456 11.25 4.44839 10.8549 5.15165 10.1517C5.85491 9.44839 6.25 8.49456 6.25 7.5M2.5 18.75C3.49456 18.75 4.44839 19.1451 5.15165 19.8483C5.85491 20.5516 6.25 21.5054 6.25 22.5M27.5 11.25C26.5054 11.25 25.5516 10.8549 24.8483 10.1517C24.1451 9.44839 23.75 8.49456 23.75 7.5M27.5 18.75C26.5054 18.75 25.5516 19.1451 24.8483 19.8483C24.1451 20.5516 23.75 21.5054 23.75 22.5M1.25 6.25H28.75V23.75H1.25V6.25ZM15 20C17.0712 20 18.75 17.7625 18.75 15C18.75 12.2375 17.0712 10 15 10C12.9288 10 11.25 12.2375 11.25 15C11.25 17.7625 12.9288 20 15 20Z" stroke="black" stroke-width="2"/>
</svg>
