<svg width="30" height="30" viewBox="0 0 30 30" fill="none" xmlns="http://www.w3.org/2000/svg">
<path fill-rule="evenodd" clip-rule="evenodd" d="M5.78937 3.75C5.55312 3.75 5.3425 3.91375 5.26125 4.16L3.81875 8.54187C3.7732 8.68045 3.75 8.82538 3.75 8.97125V10.7144C3.75 11.7 4.46938 12.5 5.35688 12.5C6.24437 12.5 6.96437 11.7 6.96437 10.7144C6.96437 11.7006 7.68375 12.5 8.57125 12.5C9.45875 12.5 10.1787 11.7 10.1787 10.7144C10.1787 11.7006 10.8981 12.5 11.7856 12.5C12.6731 12.5 13.3919 11.7013 13.3931 10.7156C13.3931 11.7013 14.1125 12.5 15 12.5C15.8875 12.5 16.6069 11.7 16.6069 10.7144C16.6069 11.7006 17.3269 12.5 18.2144 12.5C19.1019 12.5 19.8206 11.7013 19.8213 10.7156C19.8219 11.7013 20.5413 12.5 21.4287 12.5C22.3162 12.5 23.0356 11.7 23.0356 10.7144C23.0356 11.7006 23.755 12.5 24.6431 12.5C25.5306 12.5 26.25 11.7 26.25 10.7144V8.97125C26.25 8.82538 26.2268 8.68045 26.1812 8.54187L24.7388 4.16063C24.6575 3.91375 24.4469 3.75 24.2106 3.75H5.78937Z" fill="black"/>
<path fill-rule="evenodd" clip-rule="evenodd" d="M6.25 13.2687V18.125H4.6875C4.60462 18.125 4.52513 18.1579 4.46653 18.2165C4.40792 18.2751 4.375 18.3546 4.375 18.4375V19.0625C4.375 19.1454 4.40792 19.2249 4.46653 19.2835C4.52513 19.3421 4.60462 19.375 4.6875 19.375H25.3125C25.3954 19.375 25.4749 19.3421 25.5335 19.2835C25.5921 19.2249 25.625 19.1454 25.625 19.0625V18.4375C25.625 18.3546 25.5921 18.2751 25.5335 18.2165C25.4749 18.1579 25.3954 18.125 25.3125 18.125H23.75V13.2687C23.4883 13.1647 23.2466 13.016 23.0356 12.8294C22.8734 12.972 22.6933 13.093 22.5 13.1894V18.125H7.5V13.1894C7.30665 13.093 7.12661 12.972 6.96437 12.8294C6.75437 13.0138 6.51437 13.1637 6.25 13.2687ZM22.5 12.0456C22.5529 11.9927 22.6029 11.9358 22.65 11.875H22.5V12.0456ZM23.4212 11.875C23.516 11.9972 23.6266 12.1062 23.75 12.1994V11.875H23.4212ZM6.25 12.1994C6.37447 12.1075 6.48517 11.9982 6.57875 11.875H6.25V12.1994ZM7.35 11.875H7.5V12.0456C7.4466 11.9918 7.39651 11.9349 7.35 11.875ZM5.3125 20.625C5.22962 20.625 5.15013 20.6579 5.09153 20.7165C5.03292 20.7751 5 20.8546 5 20.9375V25.625C5 25.7908 5.06585 25.9497 5.18306 26.0669C5.30027 26.1842 5.45924 26.25 5.625 26.25H24.375C24.5408 26.25 24.6997 26.1842 24.8169 26.0669C24.9342 25.9497 25 25.7908 25 25.625V20.9375C25 20.8546 24.9671 20.7751 24.9085 20.7165C24.8499 20.6579 24.7704 20.625 24.6875 20.625H5.3125Z" fill="black"/>
<path d="M8.75 16.5625C8.75 16.4796 8.78292 16.4001 8.84153 16.3415C8.90013 16.2829 8.97962 16.25 9.0625 16.25H10.9375C11.0204 16.25 11.0999 16.2829 11.1585 16.3415C11.2171 16.4001 11.25 16.4796 11.25 16.5625V17.8125C11.25 17.8954 11.2171 17.9749 11.1585 18.0335C11.0999 18.0921 11.0204 18.125 10.9375 18.125H9.0625C8.97962 18.125 8.90013 18.0921 8.84153 18.0335C8.78292 17.9749 8.75 17.8954 8.75 17.8125V16.5625Z" fill="black"/>
<path d="M10 17.1875C10 17.1046 10.0329 17.0251 10.0915 16.9665C10.1501 16.9079 10.2296 16.875 10.3125 16.875H12.1875C12.2704 16.875 12.3499 16.9079 12.4085 16.9665C12.4671 17.0251 12.5 17.1046 12.5 17.1875V17.8125C12.5 17.8954 12.4671 17.9749 12.4085 18.0335C12.3499 18.0921 12.2704 18.125 12.1875 18.125H10.3125C10.2296 18.125 10.1501 18.0921 10.0915 18.0335C10.0329 17.9749 10 17.8954 10 17.8125V17.1875ZM15 17.1875C15 17.4361 14.9012 17.6746 14.7254 17.8504C14.5496 18.0262 14.3111 18.125 14.0625 18.125C13.8139 18.125 13.5754 18.0262 13.3996 17.8504C13.2238 17.6746 13.125 17.4361 13.125 17.1875C13.125 16.9389 13.2238 16.7004 13.3996 16.5246C13.5754 16.3488 13.8139 16.25 14.0625 16.25C14.3111 16.25 14.5496 16.3488 14.7254 16.5246C14.9012 16.7004 15 16.9389 15 17.1875Z" fill="black"/>
</svg>
