<svg width="30" height="30" viewBox="0 0 30 30" fill="none" xmlns="http://www.w3.org/2000/svg">
<mask id="mask0_660_13213" style="mask-type:luminance" maskUnits="userSpaceOnUse" x="0" y="0" width="30" height="30">
<path d="M0 0H30V30H0V0Z" fill="white"/>
<path fill-rule="evenodd" clip-rule="evenodd" d="M13.4885 6C13.8107 5.9623 14.1369 6.01587 14.4301 6.15461L18.8239 8.23384C19.0294 8.33109 19.2138 8.46786 19.3664 8.63636C19.519 8.80486 19.6369 9.00178 19.7134 9.21586C19.79 9.42995 19.8235 9.65701 19.8123 9.88408C19.801 10.1111 19.7451 10.3338 19.6478 10.5392L18.4132 13.1469C18.2168 13.5617 17.8637 13.8814 17.4316 14.0359C16.9995 14.1904 16.5238 14.167 16.1089 13.9708L12.2528 12.1454C11.944 11.999 11.6854 11.7646 11.5097 11.4715L11.1059 10.7988C11.0371 10.6846 10.9309 10.5977 10.8053 10.5529C10.6798 10.5081 10.5425 10.5081 10.417 10.5531L9.32085 10.9454C7.86931 11.4635 6.5147 9.96808 7.1747 8.57423L7.68239 7.49884C7.8079 7.23323 7.99895 7.00394 8.23755 6.83256C8.47615 6.66118 8.75445 6.55335 9.04624 6.51923L13.4885 6ZM13.9362 7.19769C13.8386 7.15131 13.7298 7.13332 13.6224 7.14577L9.18008 7.665C9.08302 7.67656 8.9905 7.71259 8.91118 7.7697C8.83186 7.82682 8.76836 7.90315 8.72662 7.99154L8.21662 9.06808C8.1681 9.17115 8.15119 9.28629 8.16802 9.39896C8.18484 9.51164 8.23465 9.61681 8.31116 9.70122C8.38767 9.78563 8.48746 9.8455 8.59795 9.87327C8.70843 9.90105 8.82467 9.89549 8.93201 9.85731L10.0282 9.46615C10.4049 9.33141 10.8167 9.33136 11.1934 9.46599C11.5702 9.60063 11.8887 9.86163 12.0947 10.2046L12.4985 10.8773C12.5572 10.9752 12.6435 11.0535 12.7466 11.1023L16.6028 12.9277C16.6713 12.9601 16.7455 12.9788 16.8212 12.9825C16.8968 12.9863 16.9725 12.9751 17.0439 12.9496C17.1153 12.9241 17.1809 12.8848 17.2371 12.8339C17.2932 12.783 17.3388 12.7216 17.3712 12.6531L18.6059 10.0454C18.6383 9.97683 18.6568 9.90255 18.6605 9.82682C18.6642 9.75108 18.6529 9.67536 18.6273 9.60398C18.6017 9.53261 18.5622 9.46699 18.5112 9.41087C18.4602 9.35475 18.3987 9.30923 18.3301 9.27692L13.9362 7.19769Z" fill="#003366"/>
<path fill-rule="evenodd" clip-rule="evenodd" d="M19.8946 10.0177C20.091 9.60297 20.444 9.2832 20.8761 9.12871C21.3082 8.97423 21.784 8.99765 22.1988 9.19385L23.2419 9.68769C23.6568 9.88388 23.9768 10.2369 24.1316 10.669C24.2863 11.1011 24.263 11.577 24.0669 11.9919L22.1723 15.9923C21.9759 16.407 21.6228 16.7268 21.1907 16.8813C20.7586 17.0358 20.2829 17.0124 19.868 16.8162L18.825 16.3223C18.4102 16.1259 18.0905 15.7729 17.936 15.3408C17.7815 14.9087 17.8049 14.4329 18.0011 14.0181L19.8946 10.0177ZM21.7061 10.2369C21.6376 10.2045 21.5634 10.1859 21.4877 10.1821C21.412 10.1783 21.3364 10.1895 21.265 10.215C21.1936 10.2405 21.128 10.2798 21.0718 10.3307C21.0157 10.3816 20.9701 10.443 20.9377 10.5115L19.0442 14.5119C18.979 14.6501 18.9714 14.8085 19.0228 14.9524C19.0743 15.0962 19.1808 15.2138 19.3188 15.2792L20.3619 15.7731C20.4304 15.8055 20.5046 15.8242 20.5803 15.8279C20.656 15.8317 20.7316 15.8205 20.803 15.795C20.8744 15.7695 20.94 15.7302 20.9962 15.6793C21.0523 15.6284 21.0979 15.567 21.1304 15.4985L23.0227 11.4981C23.0879 11.36 23.0957 11.2017 23.0445 11.0579C22.9932 10.9141 22.887 10.7964 22.7492 10.7308L21.7061 10.2369ZM11.1438 23.1092L15.6323 13.5992L16.6754 14.0919L12.1869 23.6008C12.0899 23.8065 11.9532 23.991 11.7848 24.1439C11.6164 24.2968 11.4195 24.4149 11.2054 24.4917C10.9913 24.5684 10.7642 24.6022 10.537 24.5911C10.3099 24.5799 10.0871 24.5242 9.88151 24.4269L8.83958 23.9342C8.63408 23.837 8.44976 23.7002 8.29713 23.5317C8.1445 23.3632 8.02657 23.1663 7.95006 22.9522C7.87356 22.7381 7.83998 22.5111 7.85125 22.284C7.86252 22.0569 7.91841 21.8343 8.01574 21.6288L12.458 12.2423L13.5011 12.7362L9.05881 22.1227C9.02637 22.1912 9.00774 22.2654 9.00398 22.3411C9.00023 22.4168 9.01142 22.4925 9.03692 22.5638C9.06242 22.6352 9.10174 22.7008 9.15261 22.757C9.20349 22.8131 9.26493 22.8587 9.33343 22.8912L10.3754 23.3838C10.4438 23.4163 10.518 23.4349 10.5937 23.4387C10.6694 23.4424 10.7451 23.4312 10.8165 23.4057C10.8878 23.3802 10.9535 23.3409 11.0096 23.2901C11.0658 23.2392 11.1114 23.1777 11.1438 23.1092Z" fill="#003366"/>
</mask>
<g mask="url(#mask0_660_13213)">
<path d="M15 30C23.2843 30 30 23.2843 30 15C30 6.71573 23.2843 0 15 0C6.71573 0 0 6.71573 0 15C0 23.2843 6.71573 30 15 30Z" fill="#003366"/>
</g>
</svg>
