<svg width="30" height="30" viewBox="0 0 30 30" fill="none" xmlns="http://www.w3.org/2000/svg">
<path fill-rule="evenodd" clip-rule="evenodd" d="M15 2.5C8.09647 2.5 2.5 8.09647 2.5 15C2.5 21.9035 8.09647 27.5 15 27.5C21.9035 27.5 27.5 21.9035 27.5 15C27.5 8.09647 21.9036 2.5 15 2.5ZM15 25C9.48602 25 5.00002 20.514 5.00002 15C5.00002 9.48596 9.48596 5.00002 15 5.00002C20.514 5.00002 25 9.48596 25 15C25 20.514 20.514 25 15 25ZM19.7072 10.534L21.4748 12.3016L13.75 20.0587L9.11623 15.425L10.8838 13.6574L13.75 16.5236L19.7072 10.534Z" fill="#003366"/>
</svg>
